<svg width="18" height="19" viewBox="0 0 18 19" fill="none" xmlns="http://www.w3.org/2000/svg">
<path d="M6.30371 3.78189H11.7067C11.2665 4.94254 10.366 6.02314 9.00521 7.02369C7.64446 6.02314 6.74396 4.94254 6.30371 3.78189ZM15.789 15.7886V18.0698H2.28148V15.7886C2.24146 14.4278 2.58165 13.1271 3.30205 11.8864C3.86236 10.8858 4.62278 9.94531 5.58331 9.06482C4.62278 8.18434 3.86236 7.24381 3.30205 6.24326C2.62167 5.00257 2.28148 3.68184 2.28148 2.28106C2.28148 1.68073 2.4916 1.16043 2.91183 0.720192C3.33206 0.279947 3.86236 0.059824 4.50271 0.059824H13.5077C14.1481 0.059824 14.6884 0.279947 15.1286 0.720192C15.5689 1.16043 15.769 1.70074 15.7289 2.34109C15.769 3.70185 15.4288 5.00257 14.7084 6.24326C14.1481 7.24381 13.3876 8.18434 12.4271 9.06482C13.3876 9.94531 14.1481 10.8858 14.7084 11.8864C15.4288 13.1271 15.789 14.4478 15.789 15.8486V15.7886ZM13.4477 3.18156L13.5677 2.28106H4.44268L4.56275 3.18156C4.76286 4.3422 5.32317 5.46282 6.24368 6.54342C6.88404 7.26382 7.66447 7.9442 8.58498 8.58456L9.00521 8.82469L9.42545 8.58456C10.346 7.98422 11.1264 7.30385 11.7667 6.54342C12.6873 5.46282 13.2476 4.3422 13.4477 3.18156Z" fill="#ABB3BA"/>
</svg>
