<svg viewBox="0 0 50 50" fill="none" xmlns="http://www.w3.org/2000/svg">
<path d="M42.6582 24.9729L44.5311 22.8229L43.7165 22.2396L45.0186 21.0687L44.0144 20.325L45.3165 19.3687L44.4769 18.7312L45.8332 12.2521L43.7707 6.25M43.7707 6.25L30.5207 11.0563H19.479L6.229 6.25L4.1665 12.2521L5.54984 18.7312L4.68317 19.3687L6.01234 20.3271L5.00817 21.0687L6.31025 22.2375L5.49775 22.8208L7.36859 24.9729L4.51859 33.5771L7.15192 42.3687L16.4082 39.8729L18.1998 41.3062L21.8665 43.75H28.1353L31.7998 41.3062L33.5915 39.8729L42.8748 42.3687L45.5353 33.5771L42.6582 24.9729" fill="#F5841F"/>
<path d="M43.7705 6.25L27.5101 17.9625L30.5247 11.0563L43.7705 6.25ZM6.22884 6.25L22.3538 18.0688L19.4768 11.0563L6.22884 6.25ZM37.9351 33.4187L33.5913 39.8458L42.8747 42.3417L45.5351 33.55L37.9351 33.4187ZM4.52051 33.5521L7.15176 42.3438L16.408 39.8458L12.0934 33.4187L4.52051 33.5521Z" fill="#E27625"/>
<path d="M15.9205 22.5293L13.3413 26.3272L22.5163 26.7272L22.2184 17.1126L15.9205 22.5293ZM34.1059 22.5293L27.6996 17.0063L27.5121 26.7272L36.6851 26.3272L34.1059 22.5293ZM16.408 39.8459L21.9726 37.2418L17.1684 33.6313L16.408 39.8459ZM28.0538 37.2438L33.5913 39.848L32.8309 33.6313L28.0538 37.2438Z" fill="#E27625"/>
<path d="M33.5915 39.8459L28.054 37.2417L28.5145 40.748L28.4603 42.2355L33.5915 39.8459ZM16.4082 39.8459L21.5665 42.2355L21.5395 40.75L21.9728 37.2438L16.4082 39.8459Z" fill="#D7C1B3"/>
<path d="M21.6455 31.2938L17.0601 29.9938L20.3163 28.5312L21.6455 31.2938ZM28.3538 31.2938L29.708 28.5312L32.9663 29.9938L28.3538 31.2938Z" fill="#2F343B"/>
<path d="M16.4083 39.8459L17.2229 33.4188L12.0938 33.5521L16.4083 39.8459ZM32.8042 33.4188L33.5917 39.8459L37.9354 33.5521L32.8042 33.4188ZM36.6875 26.3271L27.5104 26.7271L28.3521 31.2938L29.7104 28.5313L32.9667 29.9938L36.6875 26.3271ZM17.0604 29.9938L20.3167 28.5313L21.6479 31.2938L22.5167 26.7271L13.3417 26.3271L17.0604 29.9938Z" fill="#CC6228"/>
<path d="M13.3413 26.3271L17.1684 33.6313L17.0601 29.9938L13.3413 26.3271ZM32.9663 29.9938L32.8309 33.6313L36.6851 26.3271L32.9663 29.9938ZM22.5163 26.7271L21.6476 31.2938L22.733 36.7105L22.9767 29.5938L22.5163 26.7271ZM27.5101 26.7271L27.0496 29.5688L27.2663 36.7126L28.3517 31.2959L27.5101 26.7271Z" fill="#E27625"/>
<path d="M28.3538 31.2937L27.2663 36.7103L28.0538 37.2437L32.8309 33.6312L32.9663 29.9937L28.3538 31.2937ZM17.0601 29.9937L17.1684 33.6312L21.9726 37.2437L22.733 36.7124L21.6476 31.2957L17.0601 29.9937Z" fill="#F5841F"/>
<path d="M28.4604 42.2353L28.5146 40.7499L28.0813 40.404H21.9167L21.5375 40.7499L21.5646 42.2353L16.4062 39.8457L18.1979 41.279L21.8667 43.7499H28.1354L31.8 41.279L33.5917 39.8457L28.4604 42.2353Z" fill="#C0AD9E"/>
<path d="M28.0541 37.2437L27.2666 36.7124H22.7333L21.9729 37.2437L21.5396 40.7499L21.9187 40.4041H28.0812L28.5146 40.7499L28.0541 37.2437Z" fill="#2F343B"/>
<path d="M44.4769 18.7333L45.8332 12.25L43.7707 6.25L28.054 17.5625L34.1061 22.5292L42.6582 24.9729L44.5311 22.8229L43.7165 22.2396L45.0186 21.0958L44.0144 20.325L45.3165 19.3687L44.4769 18.7333ZM4.1665 12.2521L5.54984 18.7312L4.68317 19.3687L5.98525 20.3521L4.98109 21.0958L6.28317 22.2375L5.47067 22.8208L7.36859 24.9729L15.9207 22.5292L21.9728 17.5646L6.229 6.25L4.1665 12.2521Z" fill="#763E1A"/>
<path d="M42.6581 24.9728L34.1061 22.5291L36.6852 26.327L32.8311 33.6312L37.9352 33.552H45.5352L42.6581 24.9728ZM15.9206 22.5291L7.36855 24.9728L4.51855 33.552H12.0936L17.1686 33.6312L13.3415 26.327L15.9206 22.5291ZM27.5102 26.727L28.0519 17.5645L30.5248 11.0562H19.4769L21.9727 17.5645L22.5144 26.727L22.7331 29.5937V36.7124H27.2665L27.2936 29.5937L27.5102 26.727Z" fill="#F5841F"/>
</svg>
