<svg viewBox="0 0 50 50" fill="none" xmlns="http://www.w3.org/2000/svg">
<g clip-path="url(#clip0_7289_7647)">
<path d="M10.2355 15.6646C18.3917 7.6834 31.6105 7.6834 39.7646 15.6646L40.7459 16.6251C40.8428 16.7189 40.9198 16.8312 40.9724 16.9554C41.0251 17.0796 41.0522 17.2131 41.0522 17.348C41.0522 17.4829 41.0251 17.6164 40.9724 17.7405C40.9198 17.8647 40.8428 17.9771 40.7459 18.0709L37.3896 21.3563C37.3413 21.4048 37.2838 21.4433 37.2205 21.4696C37.1572 21.4958 37.0894 21.5093 37.0209 21.5093C36.9524 21.5093 36.8845 21.4958 36.8213 21.4696C36.758 21.4433 36.7005 21.4048 36.6521 21.3563L35.3 20.0355C29.6125 14.4667 20.3896 14.4667 14.7021 20.0355L13.2563 21.4521C13.1572 21.5482 13.0246 21.602 12.8865 21.602C12.7485 21.602 12.6158 21.5482 12.5167 21.4521L9.16047 18.1646C9.0631 18.0713 8.98563 17.9592 8.9327 17.8352C8.87977 17.7111 8.85249 17.5777 8.85249 17.4428C8.85249 17.3079 8.87977 17.1744 8.9327 17.0504C8.98563 16.9263 9.0631 16.8142 9.16047 16.7209L10.2355 15.6646ZM46.7063 22.4626L49.6938 25.3876C49.7907 25.4814 49.8677 25.5937 49.9204 25.7179C49.973 25.8421 50.0001 25.9756 50.0001 26.1105C50.0001 26.2454 49.973 26.3789 49.9204 26.503C49.8677 26.6272 49.7907 26.7396 49.6938 26.8334L36.223 40.023C36.0248 40.2146 35.76 40.3216 35.4844 40.3216C35.2088 40.3216 34.944 40.2146 34.7459 40.023L25.1875 30.6626C25.1383 30.6135 25.0717 30.5859 25.0021 30.5859C24.9326 30.5859 24.8659 30.6135 24.8167 30.6626L15.2563 40.023C15.0582 40.2146 14.7934 40.3216 14.5178 40.3216C14.2422 40.3216 13.9773 40.2146 13.7792 40.023L0.3063 26.8334C0.209401 26.7396 0.132353 26.6272 0.0797339 26.503C0.0271152 26.3789 0 26.2454 0 26.1105C0 25.9756 0.0271152 25.8421 0.0797339 25.7179C0.132353 25.5937 0.209401 25.4814 0.3063 25.3876L3.2938 22.4626C3.49193 22.271 3.75674 22.1639 4.03234 22.1639C4.30794 22.1639 4.57275 22.271 4.77088 22.4626L14.3313 31.823C14.4355 31.923 14.6 31.923 14.7021 31.823L24.2625 22.4626C24.4607 22.271 24.7255 22.1639 25.0011 22.1639C25.2767 22.1639 25.5415 22.271 25.7396 22.4626L35.3 31.823C35.4042 31.923 35.5667 31.923 35.6709 31.823L45.2313 22.4626C45.4286 22.2702 45.6932 22.1625 45.9688 22.1625C46.2444 22.1625 46.509 22.2702 46.7063 22.4626Z" fill="#0888F0"/>
</g>
<defs>
<clipPath id="clip0_7289_7647">
<rect width="50" height="50" fill="white"/>
</clipPath>
</defs>
</svg>
