<svg width="18" height="19" viewBox="0 0 18 19" fill="none" xmlns="http://www.w3.org/2000/svg">
<path d="M9.005 0.059824C7.36409 0.059824 5.85325 0.460047 4.47248 1.26049C3.09172 2.06094 2.00111 3.15154 1.20067 4.53231C0.400222 5.91307 0 7.42391 0 9.06482C0 10.7057 0.400222 12.2166 1.20067 13.5973C2.00111 14.9781 3.09172 16.0687 4.47248 16.8692C5.85325 17.6696 7.36409 18.0698 9.005 18.0698C10.6459 18.0698 12.1567 17.6696 13.5375 16.8692C14.9183 16.0687 16.0089 14.9781 16.8093 13.5973C17.6098 12.2166 18.01 10.7057 18.01 9.06482C18.01 7.42391 17.6098 5.91307 16.8093 4.53231C16.0089 3.15154 14.9183 2.06094 13.5375 1.26049C12.1567 0.460047 10.6459 0.059824 9.005 0.059824ZM12.547 11.5262L11.4664 12.6068L9.005 10.1454L6.54363 12.6068L5.46303 11.5262L7.9244 9.06482L5.46303 6.60346L6.54363 5.52286L9.005 7.98422L11.4664 5.52286L12.547 6.60346L10.0856 9.06482L12.547 11.5262Z" fill="#ABB3BA"/>
</svg>
